<svg xmlns="http://www.w3.org/2000/svg" width="750" height="1050" viewBox="0 0 750 1050">

    <defs>
      <linearGradient id="faceGrad" x1="0" x2="0" y1="0" y2="1">
        <stop offset="0%" stop-color="#FFFFFF"/>
        <stop offset="52%" stop-color="#FFFDF7"/>
        <stop offset="100%" stop-color="#F7EEDB"/>
      </linearGradient>
      <radialGradient id="softMedallion" cx="50%" cy="50%" r="65%">
        <stop offset="0%" stop-color="#FFF5DF" stop-opacity="0.97"/>
        <stop offset="62%" stop-color="#FFF5DF" stop-opacity="0.78"/>
        <stop offset="100%" stop-color="#FFFFFF" stop-opacity="0"/>
      </radialGradient>
      <filter id="shadow" x="-10%" y="-10%" width="120%" height="120%">
        <feDropShadow dx="0" dy="7" stdDeviation="8" flood-color="#000000" flood-opacity="0.18"/>
      </filter>
    </defs>
    
<g filter="url(#shadow)">
<rect x="18" y="18" width="714" height="1014" rx="64" ry="64" fill="url(#faceGrad)" stroke="#E8D8B8" stroke-width="2.2"/>
</g>
<ellipse cx="375.0" cy="525.0" rx="250" ry="310" fill="url(#softMedallion)"/>
<rect x="26" y="26" width="698" height="998" rx="52" ry="52" fill="none" stroke="#12355B" stroke-width="7" opacity="0.95"/><rect x="48" y="48" width="654" height="954" rx="38" ry="38" fill="none" stroke="#D6A84F" stroke-width="2.4" opacity="0.6"/><circle cx="102.0" cy="66.0" r="5.2" fill="#D6A84F" opacity="0.58"/><circle cx="102.0" cy="984.0" r="5.2" fill="#D6A84F" opacity="0.58"/><circle cx="163.0" cy="66.0" r="5.2" fill="#D6A84F" opacity="0.58"/><circle cx="163.0" cy="984.0" r="5.2" fill="#D6A84F" opacity="0.58"/><circle cx="224.0" cy="66.0" r="5.2" fill="#D6A84F" opacity="0.58"/><circle cx="224.0" cy="984.0" r="5.2" fill="#D6A84F" opacity="0.58"/><circle cx="285.0" cy="66.0" r="5.2" fill="#D6A84F" opacity="0.58"/><circle cx="285.0" cy="984.0" r="5.2" fill="#D6A84F" opacity="0.58"/><circle cx="346.0" cy="66.0" r="5.2" fill="#D6A84F" opacity="0.58"/><circle cx="346.0" cy="984.0" r="5.2" fill="#D6A84F" opacity="0.58"/><circle cx="407.0" cy="66.0" r="5.2" fill="#D6A84F" opacity="0.58"/><circle cx="407.0" cy="984.0" r="5.2" fill="#D6A84F" opacity="0.58"/><circle cx="468.0" cy="66.0" r="5.2" fill="#D6A84F" opacity="0.58"/><circle cx="468.0" cy="984.0" r="5.2" fill="#D6A84F" opacity="0.58"/><circle cx="529.0" cy="66.0" r="5.2" fill="#D6A84F" opacity="0.58"/><circle cx="529.0" cy="984.0" r="5.2" fill="#D6A84F" opacity="0.58"/><circle cx="590.0" cy="66.0" r="5.2" fill="#D6A84F" opacity="0.58"/><circle cx="590.0" cy="984.0" r="5.2" fill="#D6A84F" opacity="0.58"/><circle cx="651.0" cy="66.0" r="5.2" fill="#D6A84F" opacity="0.58"/><circle cx="651.0" cy="984.0" r="5.2" fill="#D6A84F" opacity="0.58"/><circle cx="66.0" cy="132.0" r="5.2" fill="#D6A84F" opacity="0.58"/><circle cx="684.0" cy="132.0" r="5.2" fill="#D6A84F" opacity="0.58"/><circle cx="66.0" cy="193.0" r="5.2" fill="#D6A84F" opacity="0.58"/><circle cx="684.0" cy="193.0" r="5.2" fill="#D6A84F" opacity="0.58"/><circle cx="66.0" cy="254.0" r="5.2" fill="#D6A84F" opacity="0.58"/><circle cx="684.0" cy="254.0" r="5.2" fill="#D6A84F" opacity="0.58"/><circle cx="66.0" cy="315.0" r="5.2" fill="#D6A84F" opacity="0.58"/><circle cx="684.0" cy="315.0" r="5.2" fill="#D6A84F" opacity="0.58"/><circle cx="66.0" cy="376.0" r="5.2" fill="#D6A84F" opacity="0.58"/><circle cx="684.0" cy="376.0" r="5.2" fill="#D6A84F" opacity="0.58"/><circle cx="66.0" cy="437.0" r="5.2" fill="#D6A84F" opacity="0.58"/><circle cx="684.0" cy="437.0" r="5.2" fill="#D6A84F" opacity="0.58"/><circle cx="66.0" cy="498.0" r="5.2" fill="#D6A84F" opacity="0.58"/><circle cx="684.0" cy="498.0" r="5.2" fill="#D6A84F" opacity="0.58"/><circle cx="66.0" cy="559.0" r="5.2" fill="#D6A84F" opacity="0.58"/><circle cx="684.0" cy="559.0" r="5.2" fill="#D6A84F" opacity="0.58"/><circle cx="66.0" cy="620.0" r="5.2" fill="#D6A84F" opacity="0.58"/><circle cx="684.0" cy="620.0" r="5.2" fill="#D6A84F" opacity="0.58"/><circle cx="66.0" cy="681.0" r="5.2" fill="#D6A84F" opacity="0.58"/><circle cx="684.0" cy="681.0" r="5.2" fill="#D6A84F" opacity="0.58"/><circle cx="66.0" cy="742.0" r="5.2" fill="#D6A84F" opacity="0.58"/><circle cx="684.0" cy="742.0" r="5.2" fill="#D6A84F" opacity="0.58"/><circle cx="66.0" cy="803.0" r="5.2" fill="#D6A84F" opacity="0.58"/><circle cx="684.0" cy="803.0" r="5.2" fill="#D6A84F" opacity="0.58"/><circle cx="66.0" cy="864.0" r="5.2" fill="#D6A84F" opacity="0.58"/><circle cx="684.0" cy="864.0" r="5.2" fill="#D6A84F" opacity="0.58"/><circle cx="66.0" cy="925.0" r="5.2" fill="#D6A84F" opacity="0.58"/><circle cx="684.0" cy="925.0" r="5.2" fill="#D6A84F" opacity="0.58"/><circle cx="654.0" cy="954.0" r="30" fill="none" stroke="#D6A84F" stroke-width="2" opacity="0.34"/><path d="M 654.0 910.0 Q 616.0 954.0 654.0 998.0 Q 692.0 954.0 654.0 910.0" fill="none" stroke="#D6A84F" stroke-width="2" opacity="0.34"/><circle cx="654.0" cy="96.0" r="30" fill="none" stroke="#D6A84F" stroke-width="2" opacity="0.34"/><path d="M 654.0 140.0 Q 616.0 96.0 654.0 52.0 Q 692.0 96.0 654.0 140.0" fill="none" stroke="#D6A84F" stroke-width="2" opacity="0.34"/><circle cx="96.0" cy="954.0" r="30" fill="none" stroke="#D6A84F" stroke-width="2" opacity="0.34"/><path d="M 96.0 910.0 Q 134.0 954.0 96.0 998.0 Q 58.0 954.0 96.0 910.0" fill="none" stroke="#D6A84F" stroke-width="2" opacity="0.34"/><circle cx="96.0" cy="96.0" r="30" fill="none" stroke="#D6A84F" stroke-width="2" opacity="0.34"/><path d="M 96.0 140.0 Q 134.0 96.0 96.0 52.0 Q 58.0 96.0 96.0 140.0" fill="none" stroke="#D6A84F" stroke-width="2" opacity="0.34"/>
<g transform="rotate(0 84 123)">
<text x="84" y="105" font-family="DejaVu Sans, Arial, sans-serif" font-size="64" font-weight="900" text-anchor="middle" fill="#12355B" >9</text>
<g opacity="0.970"><path d="M 84.0 147.3 C 48.3 169.0, 67.0 191.5, 84.0 174.5 C 101.0 191.5, 119.7 169.0, 84.0 147.3 Z" fill="#12355B"/><path d="M 79.9 173.1 L 88.1 173.1 L 91.1 191.5 L 76.9 191.5 Z" fill="#12355B"/><ellipse cx="84.0" cy="191.8" rx="11.6" ry="2.7" fill="#12355B" opacity="0.970"/></g>
</g>
<g transform="rotate(180 666 927)">
<text x="666" y="909" font-family="DejaVu Sans, Arial, sans-serif" font-size="64" font-weight="900" text-anchor="middle" fill="#12355B" >9</text>
<g opacity="0.970"><path d="M 666.0 951.3 C 630.3 973.0, 649.0 995.5, 666.0 978.5 C 683.0 995.5, 701.7 973.0, 666.0 951.3 Z" fill="#12355B"/><path d="M 661.9 977.1 L 670.1 977.1 L 673.1 995.5 L 658.9 995.5 Z" fill="#12355B"/><ellipse cx="666.0" cy="995.8" rx="11.6" ry="2.7" fill="#12355B" opacity="0.970"/></g>
</g>
<text x="375.0" y="112" font-family="DejaVu Sans, Arial, sans-serif" font-size="48" font-weight="900" text-anchor="middle" fill="#B58E43" opacity="0.35" >304</text>
<rect x="263.0" y="178" width="224" height="38" rx="19" ry="19" fill="#FFF7E6" stroke="#12355B" stroke-width="2" opacity="0.92"/><text x="375.0" y="205" font-family="DejaVu Sans, Arial, sans-serif" font-size="23" font-weight="800" text-anchor="middle" fill="#12355B" opacity="0.94" >HIGH 304</text>
<g opacity="0.190"><path d="M 250.0 303.8 C 220.6 321.7, 236.0 340.2, 250.0 326.2 C 264.0 340.2, 279.4 321.7, 250.0 303.8 Z" fill="#12355B"/><path d="M 246.6 325.0 L 253.4 325.0 L 255.9 340.2 L 244.1 340.2 Z" fill="#12355B"/><ellipse cx="250.0" cy="340.4" rx="9.5" ry="2.2" fill="#12355B" opacity="0.190"/></g><g opacity="0.190"><path d="M 375.0 303.8 C 345.6 321.7, 361.0 340.2, 375.0 326.2 C 389.0 340.2, 404.4 321.7, 375.0 303.8 Z" fill="#12355B"/><path d="M 371.6 325.0 L 378.4 325.0 L 380.9 340.2 L 369.1 340.2 Z" fill="#12355B"/><ellipse cx="375.0" cy="340.4" rx="9.5" ry="2.2" fill="#12355B" opacity="0.190"/></g><g opacity="0.190"><path d="M 500.0 303.8 C 470.6 321.7, 486.0 340.2, 500.0 326.2 C 514.0 340.2, 529.4 321.7, 500.0 303.8 Z" fill="#12355B"/><path d="M 496.6 325.0 L 503.4 325.0 L 505.9 340.2 L 494.1 340.2 Z" fill="#12355B"/><ellipse cx="500.0" cy="340.4" rx="9.5" ry="2.2" fill="#12355B" opacity="0.190"/></g><g opacity="0.190"><path d="M 250.0 488.8 C 220.6 506.7, 236.0 525.2, 250.0 511.2 C 264.0 525.2, 279.4 506.7, 250.0 488.8 Z" fill="#12355B"/><path d="M 246.6 510.0 L 253.4 510.0 L 255.9 525.2 L 244.1 525.2 Z" fill="#12355B"/><ellipse cx="250.0" cy="525.4" rx="9.5" ry="2.2" fill="#12355B" opacity="0.190"/></g><g opacity="0.190"><path d="M 375.0 488.8 C 345.6 506.7, 361.0 525.2, 375.0 511.2 C 389.0 525.2, 404.4 506.7, 375.0 488.8 Z" fill="#12355B"/><path d="M 371.6 510.0 L 378.4 510.0 L 380.9 525.2 L 369.1 525.2 Z" fill="#12355B"/><ellipse cx="375.0" cy="525.4" rx="9.5" ry="2.2" fill="#12355B" opacity="0.190"/></g><g opacity="0.190"><path d="M 500.0 488.8 C 470.6 506.7, 486.0 525.2, 500.0 511.2 C 514.0 525.2, 529.4 506.7, 500.0 488.8 Z" fill="#12355B"/><path d="M 496.6 510.0 L 503.4 510.0 L 505.9 525.2 L 494.1 525.2 Z" fill="#12355B"/><ellipse cx="500.0" cy="525.4" rx="9.5" ry="2.2" fill="#12355B" opacity="0.190"/></g><g transform="rotate(180 250 690)" opacity="0.190"><path d="M 250.0 673.8 C 220.6 691.7, 236.0 710.2, 250.0 696.2 C 264.0 710.2, 279.4 691.7, 250.0 673.8 Z" fill="#12355B"/><path d="M 246.6 695.0 L 253.4 695.0 L 255.9 710.2 L 244.1 710.2 Z" fill="#12355B"/><ellipse cx="250.0" cy="710.4" rx="9.5" ry="2.2" fill="#12355B" opacity="0.190"/></g><g transform="rotate(180 375 690)" opacity="0.190"><path d="M 375.0 673.8 C 345.6 691.7, 361.0 710.2, 375.0 696.2 C 389.0 710.2, 404.4 691.7, 375.0 673.8 Z" fill="#12355B"/><path d="M 371.6 695.0 L 378.4 695.0 L 380.9 710.2 L 369.1 710.2 Z" fill="#12355B"/><ellipse cx="375.0" cy="710.4" rx="9.5" ry="2.2" fill="#12355B" opacity="0.190"/></g><g transform="rotate(180 500 690)" opacity="0.190"><path d="M 500.0 673.8 C 470.6 691.7, 486.0 710.2, 500.0 696.2 C 514.0 710.2, 529.4 691.7, 500.0 673.8 Z" fill="#12355B"/><path d="M 496.6 695.0 L 503.4 695.0 L 505.9 710.2 L 494.1 710.2 Z" fill="#12355B"/><ellipse cx="500.0" cy="710.4" rx="9.5" ry="2.2" fill="#12355B" opacity="0.190"/></g>

<circle cx="375.0" cy="525.0" r="164" fill="none" stroke="#D6A84F" stroke-width="3" opacity="0.46"/>
<circle cx="375.0" cy="525.0" r="124" fill="#FFFFFF" opacity="0.36"/>
<circle cx="539.0" cy="525.0" r="4.8" fill="#D6A84F" opacity="0.70"/>
<circle cx="517.0" cy="607.0" r="4.8" fill="#D6A84F" opacity="0.70"/>
<circle cx="457.0" cy="667.0" r="4.8" fill="#D6A84F" opacity="0.70"/>
<circle cx="375.0" cy="689.0" r="4.8" fill="#D6A84F" opacity="0.70"/>
<circle cx="293.0" cy="667.0" r="4.8" fill="#D6A84F" opacity="0.70"/>
<circle cx="233.0" cy="607.0" r="4.8" fill="#D6A84F" opacity="0.70"/>
<circle cx="211.0" cy="525.0" r="4.8" fill="#D6A84F" opacity="0.70"/>
<circle cx="233.0" cy="443.0" r="4.8" fill="#D6A84F" opacity="0.70"/>
<circle cx="293.0" cy="383.0" r="4.8" fill="#D6A84F" opacity="0.70"/>
<circle cx="375.0" cy="361.0" r="4.8" fill="#D6A84F" opacity="0.70"/>
<circle cx="457.0" cy="383.0" r="4.8" fill="#D6A84F" opacity="0.70"/>
<circle cx="517.0" cy="443.0" r="4.8" fill="#D6A84F" opacity="0.70"/>
<g opacity="0.960"><path d="M 375.0 467.6 C 278.4 526.5, 329.0 587.2, 375.0 541.2 C 421.0 587.2, 471.6 526.5, 375.0 467.6 Z" fill="#12355B"/><path d="M 364.0 537.6 L 386.0 537.6 L 394.3 587.2 L 355.7 587.2 Z" fill="#12355B"/><ellipse cx="375.0" cy="588.2" rx="31.3" ry="7.4" fill="#12355B" opacity="0.960"/></g>
<text x="375.0" y="360" font-family="DejaVu Sans, Arial, sans-serif" font-size="86" font-weight="900" text-anchor="middle" fill="#12355B" opacity="0.96" >9</text>
<rect x="270.0" y="842" width="210" height="70" rx="35" ry="35" fill="#12355B" opacity="0.98"/>
<text x="375.0" y="888" font-family="DejaVu Sans, Arial, sans-serif" font-size="34" font-weight="800" text-anchor="middle" fill="#FFFFFF" >20 pts</text>
<text x="375.0" y="938" font-family="DejaVu Sans, Arial, sans-serif" font-size="24" font-weight="600" text-anchor="middle" fill="#071A2B" opacity="0.55" >Sri Lankan 304 rank value</text>
<text x="375.0" y="990" font-family="DejaVu Sans, Arial, sans-serif" font-size="25" font-weight="700" text-anchor="middle" fill="#071A2B" opacity="0.62" >NINE OF SPADES</text>
</svg>